<?xml version="1.0" encoding="UTF-8" standalone="no"?>
<!DOCTYPE svg PUBLIC "-//W3C//DTD SVG 1.1//EN" "http://www.w3.org/Graphics/SVG/1.1/DTD/svg11.dtd">
<svg version="1.1" xmlns="http://www.w3.org/2000/svg" xmlns:xlink="http://www.w3.org/1999/xlink" preserveAspectRatio="xMidYMid meet" viewBox="0 0 640 640" width="960" height="540"><defs><path d="M521.49 320C521.49 431.2 431.2 521.49 320 521.49C208.8 521.49 118.51 431.2 118.51 320C118.51 208.8 208.8 118.51 320 118.51C431.2 118.51 521.49 208.8 521.49 320Z" id="axpJVguxe"></path><path d="M505.99 320C505.99 419.07 423.55 499.5 322 499.5C220.45 499.5 138.01 419.07 138.01 320C138.01 220.93 220.45 140.5 322 140.5C423.55 140.5 505.99 220.93 505.99 320Z" id="a17A8moClb"></path><path d="M326.01 180.2C326.01 190.13 317.95 198.2 308.01 198.2C298.08 198.2 290.01 190.13 290.01 180.2C290.01 170.27 298.08 162.2 308.01 162.2C317.95 162.2 326.01 170.27 326.01 180.2Z" id="a1BMYGH4Iz"></path><path d="M348 226.2C348 236.13 339.93 244.2 330 244.2C320.07 244.2 312 236.13 312 226.2C312 216.27 320.07 208.2 330 208.2C339.93 208.2 348 216.27 348 226.2Z" id="c1bF7VNtcX"></path><path d="M416 195.2C416 205.13 407.93 213.2 398 213.2C388.07 213.2 380 205.13 380 195.2C380 185.27 388.07 177.2 398 177.2C407.93 177.2 416 185.27 416 195.2Z" id="giTzPc7sJ"></path><path d="M380 269.2C380 279.13 371.93 287.2 362 287.2C352.07 287.2 344 279.13 344 269.2C344 259.27 352.07 251.2 362 251.2C371.93 251.2 380 259.27 380 269.2Z" id="a13NU8jIKU"></path><path d="M446 247.2C446 257.13 437.93 265.2 428 265.2C418.07 265.2 410 257.13 410 247.2C410 237.27 418.07 229.2 428 229.2C437.93 229.2 446 237.27 446 247.2Z" id="b2cdm5aYe7"></path><path d="M239 269.2C239 279.13 230.93 287.2 221 287.2C211.07 287.2 203 279.13 203 269.2C203 259.27 211.07 251.2 221 251.2C230.93 251.2 239 259.27 239 269.2Z" id="a18JxCIFW5"></path><path d="M302 265.2C302 275.13 293.93 283.2 284 283.2C274.07 283.2 266 275.13 266 265.2C266 255.27 274.07 247.2 284 247.2C293.93 247.2 302 255.27 302 265.2Z" id="e1rUYADzOF"></path><path d="M260 338C260 347.93 251.93 356 242 356C232.07 356 224 347.93 224 338C224 328.07 232.07 320 242 320C251.93 320 260 328.07 260 338Z" id="gEnaQ4VMT"></path><path d="M251 205.2C251 215.13 242.93 223.2 233 223.2C223.07 223.2 215 215.13 215 205.2C215 195.27 223.07 187.2 233 187.2C242.93 187.2 251 195.27 251 205.2Z" id="amE1y9p6X"></path><path d="M218 381.2C218 391.13 209.93 399.2 200 399.2C190.07 399.2 182 391.13 182 381.2C182 371.27 190.07 363.2 200 363.2C209.93 363.2 218 371.27 218 381.2Z" id="a1qOEZdA0L"></path><path d="M320 378.2C320 388.13 311.93 396.2 302 396.2C292.07 396.2 284 388.13 284 378.2C284 368.27 292.07 360.2 302 360.2C311.93 360.2 320 368.27 320 378.2Z" id="l2Q03w12DO"></path><path d="M248 439.2C248 449.13 256.07 457.2 266 457.2C275.93 457.2 284 449.13 284 439.2C284 429.27 275.93 421.2 266 421.2C256.07 421.2 248 429.27 248 439.2Z" id="a15QhEmdio"></path><path d="M340 320C340 329.93 331.93 338 322 338C312.07 338 304 329.93 304 320C304 310.07 312.07 302 322 302C331.93 302 340 310.07 340 320Z" id="en243Aq4x"></path><path d="M351 457.2C351 467.13 342.93 475.2 333 475.2C323.07 475.2 315 467.13 315 457.2C315 447.27 323.07 439.2 333 439.2C342.93 439.2 351 447.27 351 457.2Z" id="e1JeYo68wi"></path><path d="M182 305.2C182 315.13 173.93 323.2 164 323.2C154.07 323.2 146 315.13 146 305.2C146 295.27 154.07 287.2 164 287.2C173.93 287.2 182 295.27 182 305.2Z" id="gKkdDOOwS"></path><path d="M428 295.2C428 305.13 419.93 313.2 410 313.2C400.07 313.2 392 305.13 392 295.2C392 285.27 400.07 277.2 410 277.2C419.93 277.2 428 285.27 428 295.2Z" id="bvSgJHutl"></path><path d="M492 295.2C492 305.13 483.93 313.2 474 313.2C464.07 313.2 456 305.13 456 295.2C456 285.27 464.07 277.2 474 277.2C483.93 277.2 492 285.27 492 295.2Z" id="eJ87ZRili"></path><path d="M428 356C428 365.93 419.93 374 410 374C400.07 374 392 365.93 392 356C392 346.07 400.07 338 410 338C419.93 338 428 346.07 428 356Z" id="e1uq4rE59r"></path><path d="M486 366.2C486 376.13 477.93 384.2 468 384.2C458.07 384.2 450 376.13 450 366.2C450 356.27 458.07 348.2 468 348.2C477.93 348.2 486 356.27 486 366.2Z" id="bpOCZOkRT"></path><path d="M380 399.2C380 409.13 371.93 417.2 362 417.2C352.07 417.2 344 409.13 344 399.2C344 389.27 352.07 381.2 362 381.2C371.93 381.2 380 389.27 380 399.2Z" id="g2pTyOGtS2"></path><path d="M434 430.2C434 440.13 425.93 448.2 416 448.2C406.07 448.2 398 440.13 398 430.2C398 420.27 406.07 412.2 416 412.2C425.93 412.2 434 420.27 434 430.2Z" id="bZ3VStTxi"></path></defs><g><g><g><use xlink:href="#axpJVguxe" opacity="0.5" fill="#e4ad41" fill-opacity="1"></use></g><g><use xlink:href="#a17A8moClb" opacity="0.5" fill="#fff108" fill-opacity="1"></use></g><g><use xlink:href="#a1BMYGH4Iz" opacity="0.5" fill="#c81313" fill-opacity="1"></use></g><g><use xlink:href="#c1bF7VNtcX" opacity="0.5" fill="#c81313" fill-opacity="1"></use></g><g><use xlink:href="#giTzPc7sJ" opacity="0.5" fill="#c81313" fill-opacity="1"></use></g><g><use xlink:href="#a13NU8jIKU" opacity="0.5" fill="#c81313" fill-opacity="1"></use></g><g><use xlink:href="#b2cdm5aYe7" opacity="0.5" fill="#c81313" fill-opacity="1"></use></g><g><use xlink:href="#a18JxCIFW5" opacity="0.5" fill="#c81313" fill-opacity="1"></use></g><g><use xlink:href="#e1rUYADzOF" opacity="0.5" fill="#c81313" fill-opacity="1"></use></g><g><use xlink:href="#gEnaQ4VMT" opacity="0.5" fill="#c81313" fill-opacity="1"></use></g><g><use xlink:href="#amE1y9p6X" opacity="0.5" fill="#c81313" fill-opacity="1"></use></g><g><use xlink:href="#a1qOEZdA0L" opacity="0.5" fill="#c81313" fill-opacity="1"></use></g><g><use xlink:href="#l2Q03w12DO" opacity="0.5" fill="#c81313" fill-opacity="1"></use></g><g><use xlink:href="#a15QhEmdio" opacity="0.5" fill="#c81313" fill-opacity="1"></use></g><g><use xlink:href="#en243Aq4x" opacity="0.5" fill="#c81313" fill-opacity="1"></use></g><g><use xlink:href="#e1JeYo68wi" opacity="0.5" fill="#c81313" fill-opacity="1"></use></g><g><use xlink:href="#gKkdDOOwS" opacity="0.5" fill="#c81313" fill-opacity="1"></use></g><g><use xlink:href="#bvSgJHutl" opacity="0.5" fill="#c81313" fill-opacity="1"></use></g><g><use xlink:href="#eJ87ZRili" opacity="0.5" fill="#c81313" fill-opacity="1"></use></g><g><use xlink:href="#e1uq4rE59r" opacity="0.5" fill="#c81313" fill-opacity="1"></use></g><g><use xlink:href="#bpOCZOkRT" opacity="0.5" fill="#c81313" fill-opacity="1"></use></g><g><use xlink:href="#g2pTyOGtS2" opacity="0.5" fill="#c81313" fill-opacity="1"></use></g><g><use xlink:href="#bZ3VStTxi" opacity="0.5" fill="#c81313" fill-opacity="1"></use></g></g></g></svg>